<svg width="703" height="266" viewBox="0 0 703 266" fill="none" xmlns="http://www.w3.org/2000/svg">
<path d="M238.256 121.293L254.462 19.0112H318.796L315.105 42.2803H273.95L270.821 61.9993H307.988L304.297 85.2684H267.13L261.425 121.293H238.246H238.256Z" fill="white"/>
<path d="M316.977 121.293L333.183 19.0112H378.468C394.102 19.0112 400.533 27.7044 397.783 45.1022L395.063 62.2952C393.151 74.3564 388.172 82.2531 380.114 86.0081L389.194 116.104L385.707 121.293H365.728L355.78 88.2383H345.391L340.156 121.293H316.977ZM349.082 64.9691H369.992C370.963 64.9691 371.546 64.423 371.72 63.342L374.798 43.9188C374.971 42.8378 374.562 42.2917 373.591 42.2917H352.682L349.093 64.9691H349.082Z" fill="white"/>
<path d="M406.626 95.2019L414.561 45.1022C417.321 27.7044 426.503 19.0112 442.137 19.0112H471.972C487.596 19.0112 494.037 27.7044 491.277 45.1022L483.342 95.2019C480.582 112.6 471.39 121.293 455.766 121.293H425.931C410.297 121.293 403.866 112.6 406.616 95.2019H406.626ZM429.622 96.3853C429.448 97.4776 429.847 98.0124 430.828 98.0124H458.271C459.253 98.0124 459.825 97.4662 459.999 96.3853L468.312 43.9074C468.486 42.8265 468.077 42.2803 467.105 42.2803H439.662C438.681 42.2803 438.108 42.8265 437.934 43.9074L429.622 96.3853Z" fill="white"/>
<path d="M496.082 112.395L498.362 98.0126H539.793C540.764 98.0126 541.347 97.4665 541.521 96.3855L543.116 86.3041C543.33 84.9159 542.932 84.1308 541.889 83.9374L518.137 78.305C507.411 75.9383 503.168 67.6888 505.407 53.5453L506.746 45.091C509.507 27.6932 518.689 19 534.322 19H563.892L572.87 27.898L570.589 42.2805H531.828C530.846 42.2805 530.273 42.8267 530.1 43.9076L528.597 53.3974C528.392 54.6831 528.801 55.4682 529.823 55.7641L553.616 61.1006C564.311 63.6722 568.545 71.9671 566.326 86.0083L564.874 95.2021C562.113 112.6 552.921 121.293 537.298 121.293H505.059L496.082 112.395Z" fill="white"/>
<path d="M582.849 42.2803L586.541 19.0112H663.001L659.31 42.2803H632.664L620.149 121.293H596.97L609.485 42.2803H582.849Z" fill="white"/>
<path d="M218.451 246.264L234.657 143.982H298.991L295.3 167.251H254.145L251.016 186.97H288.183L284.492 210.239H247.325L241.62 246.264H218.44H218.451Z" fill="white"/>
<path d="M300.514 220.173L312.589 143.982H335.769L323.509 221.356C323.335 222.448 323.734 222.983 324.716 222.983H349.49C350.462 222.983 351.044 222.437 351.218 221.356L363.478 143.982H386.657L374.582 220.173C371.821 237.571 362.629 246.264 347.006 246.264H319.828C304.195 246.264 297.763 237.571 300.514 220.173Z" fill="white"/>
<path d="M387.833 237.366L390.113 222.983H431.543C432.515 222.983 433.097 222.437 433.271 221.356L434.866 211.275C435.081 209.886 434.682 209.101 433.639 208.908L409.887 203.275C399.162 200.909 394.918 192.648 397.157 178.516L398.497 170.062C401.258 152.664 410.439 143.971 426.073 143.971H455.643L464.62 152.869L462.34 167.251H423.578C422.597 167.251 422.024 167.797 421.85 168.878L420.347 178.368C420.143 179.654 420.552 180.439 421.574 180.735L445.367 186.071C456.062 188.643 460.295 196.938 458.066 210.979L456.614 220.173C453.854 237.57 444.662 246.264 429.038 246.264H396.8L387.822 237.366H387.833Z" fill="white"/>
<path d="M469.273 246.264L485.479 143.982H508.659L492.453 246.264H469.273Z" fill="white"/>
<path d="M516.031 220.173L523.965 170.073C526.726 152.675 535.907 143.982 551.541 143.982H581.377C597 143.982 603.442 152.675 600.681 170.073L592.747 220.173C589.986 237.571 580.794 246.264 565.17 246.264H535.335C519.701 246.264 513.27 237.571 516.02 220.173H516.031ZM539.026 221.356C538.852 222.448 539.251 222.983 540.232 222.983H567.676C568.657 222.983 569.23 222.437 569.404 221.356L577.716 168.878C577.89 167.797 577.491 167.251 576.51 167.251H549.067C548.085 167.251 547.512 167.797 547.339 168.878L539.026 221.356Z" fill="white"/>
<path d="M608.074 246.264L624.28 143.982H649.32L670.424 203.276L679.821 143.982H703L686.794 246.264H661.887L640.65 186.97L631.253 246.264H608.074Z" fill="white"/>
<path d="M188.799 133.024L175.978 205.742H129.711L126.173 225.844H125.979L126.153 225.823L99.7727 169.24L142.522 133.024H188.789H188.799Z" fill="white"/>
<path d="M212.377 0.010225L192.449 113.075L145.988 112.922L142.451 133.024H106.071L106.143 132.584L118.351 63.3523C121.459 45.7249 130.631 29.7539 144.291 18.1795C158.135 6.44157 175.701 0 193.86 0H212.388L212.377 0.010225Z" fill="white"/>
<path d="M112.472 96.6441L70.1924 132.564H23.7006L36.5224 59.8249H83.0244L86.5622 39.7334L112.482 96.6339L112.472 96.6441Z" fill="white"/>
<path d="M106.306 132.584L106.235 133.024L94.0367 202.122C90.9284 219.74 81.7671 235.721 68.1375 247.305C54.2524 259.105 36.6352 265.587 18.4147 265.587H0L19.928 152.522L66.4095 152.665L69.9473 132.564L106.133 132.584H106.306Z" fill="white"/>
</svg>
