<svg width="213" height="266" viewBox="0 0 213 266" fill="none" xmlns="http://www.w3.org/2000/svg">
<path d="M188.799 133.024L175.978 205.742H129.711L126.173 225.844H125.979L126.153 225.823L99.7727 169.24L142.522 133.024H188.789H188.799Z" fill="white"/>
<path d="M212.377 0.010225L192.449 113.075L145.988 112.922L142.451 133.024H106.071L106.143 132.584L118.351 63.3523C121.459 45.7249 130.631 29.7539 144.291 18.1795C158.135 6.44157 175.701 0 193.86 0H212.388L212.377 0.010225Z" fill="white"/>
<path d="M112.472 96.6441L70.1924 132.564H23.7006L36.5224 59.8249H83.0244L86.5622 39.7334L112.482 96.6339L112.472 96.6441Z" fill="white"/>
<path d="M106.306 132.584L106.235 133.024L94.0367 202.122C90.9284 219.74 81.7671 235.721 68.1375 247.305C54.2524 259.105 36.6352 265.587 18.4147 265.587H0L19.928 152.522L66.4095 152.665L69.9473 132.564L106.133 132.584H106.306Z" fill="white"/>
</svg>
